<svg width="449" height="449" viewBox="0 0 449 449" fill="none" xmlns="http://www.w3.org/2000/svg">
<path d="M56.0312 37.3458C40.5351 37.3458 28.0156 54.0348 28.0156 74.6917V121.257L199.261 288.613C214.057 303.085 234.193 303.085 248.989 288.613L420.234 121.257V74.6917C420.234 54.0348 407.715 37.3458 392.219 37.3458H56.0312ZM28.0156 167.589V373.458C28.0156 394.115 40.5351 410.804 56.0312 410.804H392.219C407.715 410.804 420.234 394.115 420.234 373.458V167.589L265.536 318.723C240.847 342.765 207.316 342.765 182.714 318.723L28.0156 167.589ZM0 74.6917C0 33.4945 25.1265 0 56.0312 0H392.219C423.123 0 448.25 33.4945 448.25 74.6917V373.458C448.25 414.655 423.123 448.15 392.219 448.15H56.0312C25.1265 448.15 0 414.655 0 373.458V74.6917Z" fill="white"/>
</svg>
